<?xml version="1.0" encoding="UTF-8"?>
<svg id="Layer_1" data-name="Layer 1" xmlns="http://www.w3.org/2000/svg" viewBox="0 0 414.94 358.79">
  <defs>
<style>
    .cls-1 {
      fill: var(--svg-color, #000); /* Default color */
    }
  </style>
  </defs>
  <path class="cls-1" d="M0,179.25c0-26.88,0-53.76,0-80.63,0-16.17,6.35-25.26,21.59-30.98C79.92,45.78,138.25,23.93,196.57,2.05c7.2-2.7,14.32-2.76,21.54-.05,58.72,22.01,117.42,44.06,176.2,65.9,13,4.83,20.69,16.12,20.63,29.81-.26,54.51-.25,109.03,0,163.54.06,13.38-7.38,24.8-20.72,29.76-58.36,21.71-116.64,43.61-174.93,65.51-7.86,2.95-15.56,3.05-23.42.09-58.29-21.89-116.59-43.77-174.93-65.56-10.64-3.97-17.82-10.88-20.29-22.13-.6-2.72-.61-5.6-.62-8.4C-.01,233.44,0,206.35,0,179.25ZM14.64,179.42c0,27.42,0,54.83,0,82.25,0,8.05,3.22,12.64,10.81,15.49,58.41,21.88,116.82,43.75,175.21,65.68,4.6,1.73,8.95,1.73,13.56,0,58.4-21.94,116.83-43.8,175.25-65.69,7.63-2.86,10.88-7.6,10.88-15.83,0-54.62,0-109.23,0-163.85,0-8.14-3.13-12.8-10.65-15.62-58.81-22.04-117.62-44.04-176.42-66.1-3.96-1.48-7.71-1.48-11.67,0-58.8,22.06-117.62,44.06-176.43,66.09-7.44,2.79-10.53,7.34-10.53,15.32,0,27.42,0,54.83,0,82.25Z"/>
  <path class="cls-1" d="M172.72,225.37c0-9.75-.1-19.5.09-29.25.03-1.69.79-4.06,2.03-4.89,2.09-1.39,4.22-.09,5.98,1.7,7.69,7.79,15.45,15.5,23.2,23.23,2.99,2.98,3.84,2.97,6.88-.07,7.67-7.66,15.28-15.36,23.04-22.94,1.14-1.11,2.83-1.99,4.39-2.27,2.3-.41,3.67,1.03,3.81,3.37.11,1.94.04,3.9.04,5.85,0,18.2,0,36.4,0,54.6,0,4.75-.73,5.46-5.43,5.5-9.93.09-9.39.32-9.34-9.41.04-7.58.08-15.17-.07-22.75-.03-1.3-.74-3.3-1.67-3.69-.95-.39-2.87.47-3.82,1.37-3.96,3.69-7.76,7.56-11.53,11.45-2.03,2.09-3.82,2.01-5.81-.03-3.56-3.64-7.1-7.32-10.85-10.75-1.2-1.1-3.04-1.49-4.58-2.2-.55,1.63-1.55,3.26-1.58,4.9-.16,8.66-.06,17.33-.08,26-.01,4.34-.78,5.07-5.13,5.11-10.41.11-9.59.28-9.56-9.49.02-8.45,0-16.9,0-25.35Z"/>
  <path class="cls-1" d="M92.07,133.19c0-9.97.03-19.94-.02-29.91-.01-2.65.71-4.6,3.71-4.58,11.05.05,22.12-.18,33.15.4,9.03.48,17.74,8.14,20.2,16.56,2.61,8.92-.58,18.56-8.39,24.56-2.28,1.75-2.52,3.34-1.31,5.79,2.73,5.52,5.28,11.14,7.85,16.75,1.53,3.35.35,5.29-3.35,5.26-10.3-.06-8.11,1.33-12.29-7.46-2.04-4.3-3.89-8.7-6.13-12.89-.63-1.18-2.3-2.43-3.59-2.54-3.87-.33-7.79-.11-11.7-.12-2.5,0-3.43,1.33-3.41,3.7.05,4.66.02,9.32,0,13.98-.02,4.62-.73,5.34-5.21,5.35-1.63,0-3.25.02-4.88,0-3.64-.04-4.62-.98-4.63-4.62-.03-10.08,0-20.16,0-30.24ZM118.88,113.39c-2.92,0-5.85.03-8.77-.01-2.15-.03-3.25,1-3.27,3.11-.03,3.57-.04,7.14,0,10.71.02,1.88.87,3.1,2.93,3.1,5.95,0,11.92.17,17.86-.11,4.43-.21,7.83-4.3,7.71-8.55-.14-4.58-3.65-8.09-8.34-8.24-2.7-.08-5.41-.02-8.12-.02Z"/>
  <path class="cls-1" d="M265,133.47c0-9.96,0-19.93,0-29.89,0-1.83-.34-4.22,2.04-4.48,1.78-.2,4.27.29,5.48,1.46,9.96,9.64,19.7,19.52,29.52,29.3.76.75,1.57,1.58,2.52,1.97,1.95.8,3.46-.6,3.48-3.27.05-8.01.02-16.03.02-24.04,0-5.25.59-5.85,5.7-5.87q9.05-.04,9.05,9.02c0,18.2,0,36.39,0,54.59,0,2.12.46,4.59-2.21,5.55-2.41.87-4.28-.23-6.09-1.94-9.67-9.17-19.39-18.28-29.2-27.29-1.01-.93-2.96-1.66-4.14-1.32-.85.24-1.58,2.42-1.61,3.74-.15,7.58-.15,15.16-.04,22.74.04,3.04-1.17,4.35-4.22,4.33-11.48-.08-10.29,1.01-10.3-9.91,0-8.23,0-16.46,0-24.69Z"/>
  <path class="cls-1" d="M265,225.45c0-10.08-.01-20.16,0-30.24,0-3.57.83-4.46,4.4-4.4,8.12.12,16.31-.28,24.34.68,16.49,1.98,29.39,17.65,29.02,34.34-.39,17.68-13.81,32.62-30.98,33.95-7.55.58-15.16.31-22.75.41-2.81.04-4.09-1.26-4.07-4.18.08-10.19.03-20.38.03-30.56ZM279.49,225.57c0,3.46-.01,6.92,0,10.38.04,10.52-1.25,10.03,10.24,9.29,8.15-.52,14.22-5.13,17.1-12.95,2.81-7.65,1.22-14.69-4.35-20.7-5.08-5.49-11.71-6.4-18.74-6.21-2.97.08-4.35,1.21-4.28,4.29.12,5.3.03,10.6.03,15.9Z"/>
  <path class="cls-1" d="M187.59,119.51c0,5.41-.27,10.84.06,16.24.65,10.74,8.73,17.79,19.8,17.66,10.4-.12,19.59-8.5,19.86-18.53.27-10.28.09-20.57.11-30.86.01-4.56.75-5.3,5.24-5.35,9.52-.11,9.58-.11,9.51,9.52-.07,9.85.24,19.73-.51,29.53-1.26,16.42-16.4,29.92-33.18,30.31-17.29.41-33.23-12.26-35-28.93-1.1-10.39-.6-20.96-.74-31.46-.12-9.07-.71-9.1,9.05-8.99,5.02.05,5.61.61,5.63,5.59.01,5.09,0,10.18,0,15.27.06,0,.12,0,.18,0Z"/>
  <path class="cls-1" d="M106.86,225.6c.08,15.36,16.92,24.86,30.41,17.16,4.27-2.44,4.39-2.42,7.34,1.49.78,1.04,1.57,2.07,2.34,3.11,2.67,3.58,2.53,4.84-1.38,7.19-12.55,7.55-25.24,7.71-37.67-.1-11.86-7.45-17.99-21.48-15.08-35.39,2.94-14.07,11.46-23.67,25.6-27.28,10.03-2.56,19.5-.25,28.18,5.35,2.42,1.56,2.82,3.4.95,5.65-.21.25-.38.53-.57.79q-4.79,6.52-12.03,3.51c-13.56-5.65-28.16,3.99-28.09,18.53Z"/>
</svg>
